<?xml version="1.0" encoding="UTF-8" standalone="no"?>
<!-- Created with Inkscape (http://www.inkscape.org/) -->

<svg
   xmlns:dc="http://purl.org/dc/elements/1.1/"
   xmlns:cc="http://creativecommons.org/ns#"
   xmlns:rdf="http://www.w3.org/1999/02/22-rdf-syntax-ns#"
   xmlns:svg="http://www.w3.org/2000/svg"
   xmlns="http://www.w3.org/2000/svg"
   xmlns:sodipodi="http://sodipodi.sourceforge.net/DTD/sodipodi-0.dtd"
   xmlns:inkscape="http://www.inkscape.org/namespaces/inkscape"
   width="800"
   height="800"
   viewBox="0 0 800.00001 800.00001"
   id="svg2"
   version="1.1"
   inkscape:version="0.91 r13725"
   sodipodi:docname="MCD_4.svg">
  <defs
     id="defs4" />
  <sodipodi:namedview
     id="base"
     pagecolor="#ffffff"
     bordercolor="#666666"
     borderopacity="1.0"
     inkscape:pageopacity="0.0"
     inkscape:pageshadow="2"
     inkscape:zoom="0.98994949"
     inkscape:cx="402.9441"
     inkscape:cy="412.31346"
     inkscape:document-units="px"
     inkscape:current-layer="layer1"
     showgrid="true"
     units="px"
     inkscape:window-width="1366"
     inkscape:window-height="706"
     inkscape:window-x="-8"
     inkscape:window-y="-8"
     inkscape:window-maximized="1">
    <inkscape:grid
       type="xygrid"
       id="grid3336" />
  </sodipodi:namedview>
  <metadata
     id="metadata7">
    <rdf:RDF>
      <cc:Work
         rdf:about="">
        <dc:format>image/svg+xml</dc:format>
        <dc:type
           rdf:resource="http://purl.org/dc/dcmitype/StillImage" />
        <dc:title></dc:title>
      </cc:Work>
    </rdf:RDF>
  </metadata>
  <g
     inkscape:label="Camada 1"
     inkscape:groupmode="layer"
     id="layer1"
     transform="translate(0,-252.36216)">
    <path
       style="fill:none;fill-opacity:1;stroke:#000000;stroke-width:4.668;stroke-linecap:round;stroke-linejoin:round;stroke-miterlimit:4;stroke-dasharray:none;stroke-dashoffset:0;stroke-opacity:1"
       id="path3338"
       sodipodi:type="arc"
       sodipodi:cx="387.16251"
       sodipodi:cy="670.23535"
       sodipodi:rx="315.10614"
       sodipodi:ry="315.10614"
       sodipodi:start="1.7721201"
       sodipodi:end="1.7697639"
       sodipodi:open="true"
       d="M 324.15182,978.97721 A 315.10614,315.10614 0 0 1 78.383588,607.40654 315.10614,315.10614 0 0 1 449.80942,361.41948 315.10614,315.10614 0 0 1 696.01523,732.70035 315.10614,315.10614 0 0 1 324.87945,979.12482" />
    <path
       d="M 337.784,912.18145 A 246.93355,246.93355 0 0 1 145.18724,620.99937 246.93355,246.93355 0 0 1 436.25582,428.23112 246.93355,246.93355 0 0 1 629.19549,719.18611 246.93355,246.93355 0 0 1 338.35421,912.29713"
       sodipodi:open="true"
       sodipodi:end="1.7697639"
       sodipodi:start="1.7721201"
       sodipodi:ry="246.93355"
       sodipodi:rx="246.93355"
       sodipodi:cy="670.23529"
       sodipodi:cx="387.16245"
       sodipodi:type="arc"
       id="path4140"
       style="fill:none;fill-opacity:1;stroke:#000000;stroke-width:3.65827489;stroke-linecap:round;stroke-linejoin:round;stroke-miterlimit:4;stroke-dasharray:none;stroke-dashoffset:0;stroke-opacity:1" />
    <path
       style="fill:none;fill-opacity:1;stroke:#000000;stroke-width:2.61860633;stroke-linecap:round;stroke-linejoin:round;stroke-miterlimit:4;stroke-dasharray:none;stroke-dashoffset:0;stroke-opacity:1"
       id="path4142"
       sodipodi:type="arc"
       sodipodi:cx="387.16241"
       sodipodi:cy="670.23523"
       sodipodi:rx="176.75592"
       sodipodi:ry="176.75592"
       sodipodi:start="1.7721201"
       sodipodi:end="1.7697639"
       sodipodi:open="true"
       d="M 351.81714,843.42116 A 176.75592,176.75592 0 0 1 213.95569,634.99198 176.75592,176.75592 0 0 1 422.30363,497.00778 176.75592,176.75592 0 0 1 560.41054,705.2744 176.75592,176.75592 0 0 1 352.2253,843.50396" />
    <path
       d="M 365.85029,774.66093 A 106.57829,106.57829 0 0 1 282.72415,648.98465 106.57829,106.57829 0 0 1 408.35144,565.78449 106.57829,106.57829 0 0 1 491.62558,691.36275 106.57829,106.57829 0 0 1 366.0964,774.71086"
       sodipodi:open="true"
       sodipodi:end="1.7697639"
       sodipodi:start="1.7721201"
       sodipodi:ry="106.57829"
       sodipodi:rx="106.57829"
       sodipodi:cy="670.23523"
       sodipodi:cx="387.16238"
       sodipodi:type="arc"
       id="path4144"
       style="fill:none;fill-opacity:1;stroke:#000000;stroke-width:1.57893765;stroke-linecap:round;stroke-linejoin:round;stroke-miterlimit:4;stroke-dasharray:none;stroke-dashoffset:0;stroke-opacity:1" />
    <path
       style="fill:#000000;fill-opacity:1;stroke:#000000;stroke-width:0.33133471;stroke-linecap:round;stroke-linejoin:round;stroke-miterlimit:4;stroke-dasharray:none;stroke-dashoffset:0;stroke-opacity:1"
       id="path4146"
       sodipodi:type="arc"
       sodipodi:cx="387.16232"
       sodipodi:cy="670.23517"
       sodipodi:rx="22.365093"
       sodipodi:ry="22.365093"
       sodipodi:start="1.7721201"
       sodipodi:end="1.7697639"
       sodipodi:open="true"
       d="m 382.69005,692.14855 a 22.365093,22.365093 0 0 1 -17.44374,-26.37274 22.365093,22.365093 0 0 1 26.36246,-17.45927 22.365093,22.365093 0 0 1 17.4748,26.35217 22.365093,22.365093 0 0 1 -26.34187,17.49031" />
    <path
       d="m 382.69005,583.05205 a 22.365093,22.365093 0 0 1 -17.44374,-26.37274 22.365093,22.365093 0 0 1 26.36246,-17.45927 22.365093,22.365093 0 0 1 17.4748,26.35217 22.365093,22.365093 0 0 1 -26.34187,17.49032"
       sodipodi:open="true"
       sodipodi:end="1.7697639"
       sodipodi:start="1.7721201"
       sodipodi:ry="22.365093"
       sodipodi:rx="22.365093"
       sodipodi:cy="561.13867"
       sodipodi:cx="387.16232"
       sodipodi:type="arc"
       id="path4167"
       style="fill:#000000;fill-opacity:1;stroke:#000000;stroke-width:0.33133471;stroke-linecap:round;stroke-linejoin:round;stroke-miterlimit:4;stroke-dasharray:none;stroke-dashoffset:0;stroke-opacity:1" />
    <path
       d="m 485.72561,692.14855 a 22.365093,22.365093 0 0 1 -17.44374,-26.37274 22.365093,22.365093 0 0 1 26.36246,-17.45927 22.365093,22.365093 0 0 1 17.47479,26.35217 22.365093,22.365093 0 0 1 -26.34187,17.49031"
       sodipodi:open="true"
       sodipodi:end="1.7697639"
       sodipodi:start="1.7721201"
       sodipodi:ry="22.365093"
       sodipodi:rx="22.365093"
       sodipodi:cy="670.23517"
       sodipodi:cx="490.19788"
       sodipodi:type="arc"
       id="path4169"
       style="fill:#000000;fill-opacity:1;stroke:#000000;stroke-width:0.33133471;stroke-linecap:round;stroke-linejoin:round;stroke-miterlimit:4;stroke-dasharray:none;stroke-dashoffset:0;stroke-opacity:1" />
    <path
       d="m 279.6545,692.14855 a 22.365093,22.365093 0 0 1 -17.44374,-26.37274 22.365093,22.365093 0 0 1 26.36246,-17.45927 22.365093,22.365093 0 0 1 17.4748,26.35217 22.365093,22.365093 0 0 1 -26.34188,17.49031"
       sodipodi:open="true"
       sodipodi:end="1.7697639"
       sodipodi:start="1.7721201"
       sodipodi:ry="22.365093"
       sodipodi:rx="22.365093"
       sodipodi:cy="670.23517"
       sodipodi:cx="284.12677"
       sodipodi:type="arc"
       id="path4171"
       style="fill:#000000;fill-opacity:1;stroke:#000000;stroke-width:0.33133471;stroke-linecap:round;stroke-linejoin:round;stroke-miterlimit:4;stroke-dasharray:none;stroke-dashoffset:0;stroke-opacity:1" />
    <path
       d="m 382.69005,793.16381 a 22.365093,22.365093 0 0 1 -17.44374,-26.37274 22.365093,22.365093 0 0 1 26.36246,-17.45928 22.365093,22.365093 0 0 1 17.4748,26.35218 22.365093,22.365093 0 0 1 -26.34187,17.49031"
       sodipodi:open="true"
       sodipodi:end="1.7697639"
       sodipodi:start="1.7721201"
       sodipodi:ry="22.365093"
       sodipodi:rx="22.365093"
       sodipodi:cy="771.25043"
       sodipodi:cx="387.16232"
       sodipodi:type="arc"
       id="path4173"
       style="fill:#000000;fill-opacity:1;stroke:#000000;stroke-width:0.33133471;stroke-linecap:round;stroke-linejoin:round;stroke-miterlimit:4;stroke-dasharray:none;stroke-dashoffset:0;stroke-opacity:1" />
    <path
       d="m 455.42104,617.39727 a 22.365093,22.365093 0 0 1 -17.44374,-26.37274 22.365093,22.365093 0 0 1 26.36246,-17.45928 22.365093,22.365093 0 0 1 17.4748,26.35218 22.365093,22.365093 0 0 1 -26.34188,17.49031"
       sodipodi:open="true"
       sodipodi:end="1.7697639"
       sodipodi:start="1.7721201"
       sodipodi:ry="22.365093"
       sodipodi:rx="22.365093"
       sodipodi:cy="595.48389"
       sodipodi:cx="459.89331"
       sodipodi:type="arc"
       id="path4175"
       style="fill:#000000;fill-opacity:1;stroke:#000000;stroke-width:0.33133471;stroke-linecap:round;stroke-linejoin:round;stroke-miterlimit:4;stroke-dasharray:none;stroke-dashoffset:0;stroke-opacity:1" />
    <path
       style="fill:#000000;fill-opacity:1;stroke:#000000;stroke-width:0.33133471;stroke-linecap:round;stroke-linejoin:round;stroke-miterlimit:4;stroke-dasharray:none;stroke-dashoffset:0;stroke-opacity:1"
       id="path4177"
       sodipodi:type="arc"
       sodipodi:cx="312.41104"
       sodipodi:cy="595.48389"
       sodipodi:rx="22.365093"
       sodipodi:ry="22.365093"
       sodipodi:start="1.7721201"
       sodipodi:end="1.7697639"
       sodipodi:open="true"
       d="m 307.93877,617.39727 a 22.365093,22.365093 0 0 1 -17.44374,-26.37274 22.365093,22.365093 0 0 1 26.36246,-17.45928 22.365093,22.365093 0 0 1 17.4748,26.35218 22.365093,22.365093 0 0 1 -26.34187,17.49031" />
    <path
       d="m 307.93877,761.84911 a 22.365093,22.365093 0 0 1 -17.44374,-26.37274 22.365093,22.365093 0 0 1 26.36246,-17.45927 22.365093,22.365093 0 0 1 17.4748,26.35217 22.365093,22.365093 0 0 1 -26.34187,17.49032"
       sodipodi:open="true"
       sodipodi:end="1.7697639"
       sodipodi:start="1.7721201"
       sodipodi:ry="22.365093"
       sodipodi:rx="22.365093"
       sodipodi:cy="739.93573"
       sodipodi:cx="312.41104"
       sodipodi:type="arc"
       id="path4179"
       style="fill:#000000;fill-opacity:1;stroke:#000000;stroke-width:0.33133471;stroke-linecap:round;stroke-linejoin:round;stroke-miterlimit:4;stroke-dasharray:none;stroke-dashoffset:0;stroke-opacity:1" />
    <path
       style="fill:#000000;fill-opacity:1;stroke:#000000;stroke-width:0.33133471;stroke-linecap:round;stroke-linejoin:round;stroke-miterlimit:4;stroke-dasharray:none;stroke-dashoffset:0;stroke-opacity:1"
       id="path4181"
       sodipodi:type="arc"
       sodipodi:cx="312.41104"
       sodipodi:cy="739.93573"
       sodipodi:rx="22.365093"
       sodipodi:ry="22.365093"
       sodipodi:start="1.7721201"
       sodipodi:end="1.7697639"
       sodipodi:open="true"
       d="m 307.93877,761.84911 a 22.365093,22.365093 0 0 1 -17.44374,-26.37274 22.365093,22.365093 0 0 1 26.36246,-17.45927 22.365093,22.365093 0 0 1 17.4748,26.35217 22.365093,22.365093 0 0 1 -26.34187,17.49032" />
    <path
       style="fill:#000000;fill-opacity:1;stroke:#000000;stroke-width:0.33133471;stroke-linecap:round;stroke-linejoin:round;stroke-miterlimit:4;stroke-dasharray:none;stroke-dashoffset:0;stroke-opacity:1"
       id="path4183"
       sodipodi:type="arc"
       sodipodi:cx="459.89331"
       sodipodi:cy="744.98645"
       sodipodi:rx="22.365093"
       sodipodi:ry="22.365093"
       sodipodi:start="1.7721201"
       sodipodi:end="1.7697639"
       sodipodi:open="true"
       d="m 455.42104,766.89983 a 22.365093,22.365093 0 0 1 -17.44374,-26.37274 22.365093,22.365093 0 0 1 26.36246,-17.45927 22.365093,22.365093 0 0 1 17.4748,26.35217 22.365093,22.365093 0 0 1 -26.34188,17.49032" />
    <path
       style="fill:#000000;fill-opacity:1;stroke:#000000;stroke-width:0.33133471;stroke-linecap:round;stroke-linejoin:round;stroke-miterlimit:4;stroke-dasharray:none;stroke-dashoffset:0;stroke-opacity:1"
       id="path4185"
       sodipodi:type="arc"
       sodipodi:cx="544.74615"
       sodipodi:cy="595.48389"
       sodipodi:rx="22.365093"
       sodipodi:ry="22.365093"
       sodipodi:start="1.7721201"
       sodipodi:end="1.7697639"
       sodipodi:open="true"
       d="m 540.27388,617.39727 a 22.365093,22.365093 0 0 1 -17.44374,-26.37274 22.365093,22.365093 0 0 1 26.36247,-17.45928 22.365093,22.365093 0 0 1 17.47479,26.35218 22.365093,22.365093 0 0 1 -26.34187,17.49031" />
    <path
       style="fill:#000000;fill-opacity:1;stroke:#000000;stroke-width:0.33133471;stroke-linecap:round;stroke-linejoin:round;stroke-miterlimit:4;stroke-dasharray:none;stroke-dashoffset:0;stroke-opacity:1"
       id="path4187"
       sodipodi:type="arc"
       sodipodi:cx="387.16232"
       sodipodi:cy="493.45847"
       sodipodi:rx="22.365093"
       sodipodi:ry="22.365093"
       sodipodi:start="1.7721201"
       sodipodi:end="1.7697639"
       sodipodi:open="true"
       d="m 382.69005,515.37184 a 22.365093,22.365093 0 0 1 -17.44374,-26.37274 22.365093,22.365093 0 0 1 26.36246,-17.45927 22.365093,22.365093 0 0 1 17.4748,26.35217 22.365093,22.365093 0 0 1 -26.34187,17.49032" />
    <path
       style="fill:#000000;fill-opacity:1;stroke:#000000;stroke-width:0.33133471;stroke-linecap:round;stroke-linejoin:round;stroke-miterlimit:4;stroke-dasharray:none;stroke-dashoffset:0;stroke-opacity:1"
       id="path4189"
       sodipodi:type="arc"
       sodipodi:cx="387.16232"
       sodipodi:cy="842.97125"
       sodipodi:rx="22.365093"
       sodipodi:ry="22.365093"
       sodipodi:start="1.7721201"
       sodipodi:end="1.7697639"
       sodipodi:open="true"
       d="m 382.69005,864.88463 a 22.365093,22.365093 0 0 1 -17.44374,-26.37274 22.365093,22.365093 0 0 1 26.36246,-17.45927 22.365093,22.365093 0 0 1 17.4748,26.35217 22.365093,22.365093 0 0 1 -26.34187,17.49032" />
    <path
       d="m 224.0961,617.39727 a 22.365093,22.365093 0 0 1 -17.44374,-26.37274 22.365093,22.365093 0 0 1 26.36247,-17.45928 22.365093,22.365093 0 0 1 17.47479,26.35218 22.365093,22.365093 0 0 1 -26.34187,17.49031"
       sodipodi:open="true"
       sodipodi:end="1.7697639"
       sodipodi:start="1.7721201"
       sodipodi:ry="22.365093"
       sodipodi:rx="22.365093"
       sodipodi:cy="595.48389"
       sodipodi:cx="228.56837"
       sodipodi:type="arc"
       id="path4191"
       style="fill:#000000;fill-opacity:1;stroke:#000000;stroke-width:0.33133471;stroke-linecap:round;stroke-linejoin:round;stroke-miterlimit:4;stroke-dasharray:none;stroke-dashoffset:0;stroke-opacity:1" />
    <path
       d="m 537.24337,766.89983 a 22.365093,22.365093 0 0 1 -17.44374,-26.37274 22.365093,22.365093 0 0 1 26.36246,-17.45927 22.365093,22.365093 0 0 1 17.4748,26.35217 22.365093,22.365093 0 0 1 -26.34188,17.49032"
       sodipodi:open="true"
       sodipodi:end="1.7697639"
       sodipodi:start="1.7721201"
       sodipodi:ry="22.365093"
       sodipodi:rx="22.365093"
       sodipodi:cy="744.98645"
       sodipodi:cx="541.71564"
       sodipodi:type="arc"
       id="path4193"
       style="fill:#000000;fill-opacity:1;stroke:#000000;stroke-width:0.33133471;stroke-linecap:round;stroke-linejoin:round;stroke-miterlimit:4;stroke-dasharray:none;stroke-dashoffset:0;stroke-opacity:1" />
    <path
       d="m 221.06565,761.84911 a 22.365093,22.365093 0 0 1 -17.44374,-26.37274 22.365093,22.365093 0 0 1 26.36246,-17.45927 22.365093,22.365093 0 0 1 17.4748,26.35217 22.365093,22.365093 0 0 1 -26.34188,17.49032"
       sodipodi:open="true"
       sodipodi:end="1.7697639"
       sodipodi:start="1.7721201"
       sodipodi:ry="22.365093"
       sodipodi:rx="22.365093"
       sodipodi:cy="739.93573"
       sodipodi:cx="225.53792"
       sodipodi:type="arc"
       id="path4195"
       style="fill:#000000;fill-opacity:1;stroke:#000000;stroke-width:0.33133471;stroke-linecap:round;stroke-linejoin:round;stroke-miterlimit:4;stroke-dasharray:none;stroke-dashoffset:0;stroke-opacity:1" />
    <path
       style="fill:#000000;fill-opacity:1;stroke:#000000;stroke-width:0.33133471;stroke-linecap:round;stroke-linejoin:round;stroke-miterlimit:4;stroke-dasharray:none;stroke-dashoffset:0;stroke-opacity:1"
       id="path4197"
       sodipodi:type="arc"
       sodipodi:cx="562.92883"
       sodipodi:cy="670.23517"
       sodipodi:rx="22.365093"
       sodipodi:ry="22.365093"
       sodipodi:start="1.7721201"
       sodipodi:end="1.7697639"
       sodipodi:open="true"
       d="m 558.45656,692.14855 a 22.365093,22.365093 0 0 1 -17.44374,-26.37274 22.365093,22.365093 0 0 1 26.36246,-17.45927 22.365093,22.365093 0 0 1 17.4748,26.35217 22.365093,22.365093 0 0 1 -26.34187,17.49031" />
    <path
       style="fill:#000000;fill-opacity:1;stroke:#000000;stroke-width:0.33133471;stroke-linecap:round;stroke-linejoin:round;stroke-miterlimit:4;stroke-dasharray:none;stroke-dashoffset:0;stroke-opacity:1"
       id="path4199"
       sodipodi:type="arc"
       sodipodi:cx="209.37549"
       sodipodi:cy="670.23517"
       sodipodi:rx="22.365093"
       sodipodi:ry="22.365093"
       sodipodi:start="1.7721201"
       sodipodi:end="1.7697639"
       sodipodi:open="true"
       d="m 204.90322,692.14855 a 22.365093,22.365093 0 0 1 -17.44374,-26.37274 22.365093,22.365093 0 0 1 26.36246,-17.45927 22.365093,22.365093 0 0 1 17.4748,26.35217 22.365093,22.365093 0 0 1 -26.34188,17.49031" />
    <path
       d="m 498.85759,825.4887 a 22.365093,22.365093 0 0 1 -17.44374,-26.37274 22.365093,22.365093 0 0 1 26.36247,-17.45928 22.365093,22.365093 0 0 1 17.47479,26.35218 22.365093,22.365093 0 0 1 -26.34187,17.49031"
       sodipodi:open="true"
       sodipodi:end="1.7697639"
       sodipodi:start="1.7721201"
       sodipodi:ry="22.365093"
       sodipodi:rx="22.365093"
       sodipodi:cy="803.57532"
       sodipodi:cx="503.32986"
       sodipodi:type="arc"
       id="path4201"
       style="fill:#000000;fill-opacity:1;stroke:#000000;stroke-width:0.33133471;stroke-linecap:round;stroke-linejoin:round;stroke-miterlimit:4;stroke-dasharray:none;stroke-dashoffset:0;stroke-opacity:1" />
    <path
       style="fill:#000000;fill-opacity:1;stroke:#000000;stroke-width:0.33133471;stroke-linecap:round;stroke-linejoin:round;stroke-miterlimit:4;stroke-dasharray:none;stroke-dashoffset:0;stroke-opacity:1"
       id="path4203"
       sodipodi:type="arc"
       sodipodi:cx="503.32986"
       sodipodi:cy="537.90521"
       sodipodi:rx="22.365093"
       sodipodi:ry="22.365093"
       sodipodi:start="1.7721201"
       sodipodi:end="1.7697639"
       sodipodi:open="true"
       d="m 498.85759,559.81859 a 22.365093,22.365093 0 0 1 -17.44374,-26.37274 22.365093,22.365093 0 0 1 26.36247,-17.45927 22.365093,22.365093 0 0 1 17.47479,26.35217 22.365093,22.365093 0 0 1 -26.34187,17.49032" />
    <path
       d="m 261.47176,559.81859 a 22.365093,22.365093 0 0 1 -17.44374,-26.37274 22.365093,22.365093 0 0 1 26.36246,-17.45927 22.365093,22.365093 0 0 1 17.4748,26.35217 22.365093,22.365093 0 0 1 -26.34187,17.49032"
       sodipodi:open="true"
       sodipodi:end="1.7697639"
       sodipodi:start="1.7721201"
       sodipodi:ry="22.365093"
       sodipodi:rx="22.365093"
       sodipodi:cy="537.90521"
       sodipodi:cx="265.94403"
       sodipodi:type="arc"
       id="path4205"
       style="fill:#000000;fill-opacity:1;stroke:#000000;stroke-width:0.33133471;stroke-linecap:round;stroke-linejoin:round;stroke-miterlimit:4;stroke-dasharray:none;stroke-dashoffset:0;stroke-opacity:1" />
    <path
       style="fill:#000000;fill-opacity:1;stroke:#000000;stroke-width:0.33133471;stroke-linecap:round;stroke-linejoin:round;stroke-miterlimit:4;stroke-dasharray:none;stroke-dashoffset:0;stroke-opacity:1"
       id="path4207"
       sodipodi:type="arc"
       sodipodi:cx="265.94403"
       sodipodi:cy="796.50427"
       sodipodi:rx="22.365093"
       sodipodi:ry="22.365093"
       sodipodi:start="1.7721201"
       sodipodi:end="1.7697639"
       sodipodi:open="true"
       d="m 261.47176,818.41765 a 22.365093,22.365093 0 0 1 -17.44374,-26.37274 22.365093,22.365093 0 0 1 26.36246,-17.45927 22.365093,22.365093 0 0 1 17.4748,26.35217 22.365093,22.365093 0 0 1 -26.34187,17.49032" />
    <path
       d="m 448.34996,527.4937 a 22.365093,22.365093 0 0 1 -17.44373,-26.37274 22.365093,22.365093 0 0 1 26.36246,-17.45927 22.365093,22.365093 0 0 1 17.47479,26.35217 22.365093,22.365093 0 0 1 -26.34187,17.49032"
       sodipodi:open="true"
       sodipodi:end="1.7697639"
       sodipodi:start="1.7721201"
       sodipodi:ry="22.365093"
       sodipodi:rx="22.365093"
       sodipodi:cy="505.58032"
       sodipodi:cx="452.82224"
       sodipodi:type="arc"
       id="path4209"
       style="fill:#000000;fill-opacity:1;stroke:#000000;stroke-width:0.33133471;stroke-linecap:round;stroke-linejoin:round;stroke-miterlimit:4;stroke-dasharray:none;stroke-dashoffset:0;stroke-opacity:1" />
    <path
       style="fill:#000000;fill-opacity:1;stroke:#000000;stroke-width:0.33133471;stroke-linecap:round;stroke-linejoin:round;stroke-miterlimit:4;stroke-dasharray:none;stroke-dashoffset:0;stroke-opacity:1"
       id="path4211"
       sodipodi:type="arc"
       sodipodi:cx="321.50241"
       sodipodi:cy="505.58032"
       sodipodi:rx="22.365093"
       sodipodi:ry="22.365093"
       sodipodi:start="1.7721201"
       sodipodi:end="1.7697639"
       sodipodi:open="true"
       d="m 317.03014,527.4937 a 22.365093,22.365093 0 0 1 -17.44374,-26.37274 22.365093,22.365093 0 0 1 26.36246,-17.45927 22.365093,22.365093 0 0 1 17.4748,26.35217 22.365093,22.365093 0 0 1 -26.34187,17.49032" />
    <path
       d="m 317.03014,854.78313 a 22.365093,22.365093 0 0 1 -17.44374,-26.37274 22.365093,22.365093 0 0 1 26.36246,-17.45927 22.365093,22.365093 0 0 1 17.4748,26.35217 22.365093,22.365093 0 0 1 -26.34187,17.49032"
       sodipodi:open="true"
       sodipodi:end="1.7697639"
       sodipodi:start="1.7721201"
       sodipodi:ry="22.365093"
       sodipodi:rx="22.365093"
       sodipodi:cy="832.86975"
       sodipodi:cx="321.50241"
       sodipodi:type="arc"
       id="path4213"
       style="fill:#000000;fill-opacity:1;stroke:#000000;stroke-width:0.33133471;stroke-linecap:round;stroke-linejoin:round;stroke-miterlimit:4;stroke-dasharray:none;stroke-dashoffset:0;stroke-opacity:1" />
    <path
       style="fill:#000000;fill-opacity:1;stroke:#000000;stroke-width:0.33133471;stroke-linecap:round;stroke-linejoin:round;stroke-miterlimit:4;stroke-dasharray:none;stroke-dashoffset:0;stroke-opacity:1"
       id="path4215"
       sodipodi:type="arc"
       sodipodi:cx="451.8121"
       sodipodi:cy="832.86975"
       sodipodi:rx="22.365093"
       sodipodi:ry="22.365093"
       sodipodi:start="1.7721201"
       sodipodi:end="1.7697639"
       sodipodi:open="true"
       d="m 447.33983,854.78313 a 22.365093,22.365093 0 0 1 -17.44374,-26.37274 22.365093,22.365093 0 0 1 26.36246,-17.45927 22.365093,22.365093 0 0 1 17.4748,26.35217 22.365093,22.365093 0 0 1 -26.34187,17.49032" />
  </g>
</svg>
